<mxfile host="65bd71144e">
    <diagram name="Page-1" id="f1b7ffb7-ca1e-a977-7cf5-a751b3c06c05">
        <mxGraphModel dx="1215" dy="969" grid="1" gridSize="10" guides="1" tooltips="1" connect="1" arrows="1" fold="1" page="0" pageScale="1" pageWidth="826" pageHeight="1169" background="light-dark(#FFFFFF,#000000)" math="0" shadow="0">
            <root>
                <mxCell id="0"/>
                <mxCell id="1" parent="0"/>
                <mxCell id="kTxBf1TP1A-4oTdFgtY4-59" value="" style="ellipse;whiteSpace=wrap;html=1;aspect=fixed;" parent="1" vertex="1">
                    <mxGeometry x="-390" y="930" width="40" height="40" as="geometry"/>
                </mxCell>
                <mxCell id="785_2pcN_aCQlDyxK6Ve-77" value="" style="rounded=0;whiteSpace=wrap;html=1;" parent="1" vertex="1">
                    <mxGeometry width="826" height="2140" as="geometry"/>
                </mxCell>
                <mxCell id="14" value="" style="verticalLabelPosition=bottom;verticalAlign=top;strokeWidth=1;shape=mxgraph.mockup.graphics.iconGrid;strokeColor=#CCCCCC;gridSize=1,1;" parent="1" vertex="1">
                    <mxGeometry y="437.5" width="826" height="320" as="geometry"/>
                </mxCell>
                <mxCell id="13" value="" style="verticalLabelPosition=bottom;verticalAlign=top;strokeWidth=1;shape=mxgraph.mockup.graphics.iconGrid;strokeColor=#CCCCCC;gridSize=1,1;" parent="1" vertex="1">
                    <mxGeometry x="449" y="80" width="330" height="320" as="geometry"/>
                </mxCell>
                <mxCell id="3" value="" style="line;strokeWidth=1;strokeColor=light-dark(#000000,#666666);" parent="1" vertex="1">
                    <mxGeometry x="60" y="37" width="720" height="10" as="geometry"/>
                </mxCell>
                <mxCell id="25" value="" style="verticalLabelPosition=bottom;verticalAlign=top;strokeWidth=1;shape=mxgraph.mockup.graphics.iconGrid;strokeColor=#CCCCCC;gridSize=1,1;" parent="1" vertex="1">
                    <mxGeometry x="120" y="870" width="160" height="160" as="geometry"/>
                </mxCell>
                <mxCell id="Zre4ykRQMAsjXhKFmeQh-62" value="Logo" style="text;html=1;align=left;verticalAlign=middle;resizable=0;points=[];autosize=1;strokeColor=none;fillColor=none;fontSize=17;" parent="1" vertex="1">
                    <mxGeometry x="59" y="7" width="60" height="30" as="geometry"/>
                </mxCell>
                <mxCell id="Zre4ykRQMAsjXhKFmeQh-67" value="&lt;h1 style=&quot;margin-top: 0px;&quot;&gt;&lt;div&gt;&lt;span&gt;&lt;/span&gt;&lt;span&gt;&lt;/span&gt;&lt;/div&gt;&lt;span style=&quot;white-space-collapse: preserve;&quot;&gt;Elevate Your Spirit with Victory Scented Fragrances!&lt;/span&gt;&lt;/h1&gt;&lt;p&gt;&lt;span&gt;&lt;/span&gt;&lt;span&gt;&lt;/span&gt;&lt;span style=&quot;white-space-collapse: preserve;&quot;&gt;Shop now and embrace the sweet smell of victory with Local Face. &lt;br&gt;&lt;/span&gt;&lt;/p&gt;" style="text;html=1;whiteSpace=wrap;overflow=hidden;rounded=0;" parent="1" vertex="1">
                    <mxGeometry x="60" y="161" width="380" height="109" as="geometry"/>
                </mxCell>
                <mxCell id="kTxBf1TP1A-4oTdFgtY4-37" value="shop now" style="rounded=1;whiteSpace=wrap;html=1;" parent="1" vertex="1">
                    <mxGeometry x="60" y="285" width="90" height="30" as="geometry"/>
                </mxCell>
                <mxCell id="kTxBf1TP1A-4oTdFgtY4-38" value="&lt;h1 style=&quot;margin-top: 0px;&quot;&gt;&lt;span style=&quot;white-space-collapse: preserve;&quot;&gt;&lt;font style=&quot;font-size: 23px;&quot;&gt;Welcome to Local Face&lt;/font&gt;&lt;/span&gt;&lt;/h1&gt;&lt;p&gt;&lt;span style=&quot;white-space-collapse: preserve;&quot;&gt;&lt;font color=&quot;#b3b3b3&quot; style=&quot;font-size: 15px;&quot;&gt;Welcome to Local Face Perfumes, where the spirit of victory and triumph come alive through scents that empower and inspire. Our curated collection, aptly named &quot;Victory Scented,&quot; is a celebration of success and elegance, designed to unleash your victorious essence. Indulge in the sweet taste of triumph with captivating fragrances that tell the tale of your achievements. At Local Face, we believe that every victory deserves a signature scent, and we are dedicated to providing unforgettable fragrances that elevate your spirit and empower your journey.&lt;/font&gt;&lt;/span&gt;&lt;/p&gt;" style="text;html=1;whiteSpace=wrap;overflow=hidden;rounded=0;align=center;" parent="1" vertex="1">
                    <mxGeometry x="87" y="508" width="650" height="179" as="geometry"/>
                </mxCell>
                <mxCell id="kTxBf1TP1A-4oTdFgtY4-39" value="" style="verticalLabelPosition=bottom;verticalAlign=top;strokeWidth=1;shape=mxgraph.mockup.graphics.iconGrid;strokeColor=#CCCCCC;gridSize=1,1;" parent="1" vertex="1">
                    <mxGeometry x="340" y="870" width="160" height="160" as="geometry"/>
                </mxCell>
                <mxCell id="kTxBf1TP1A-4oTdFgtY4-40" value="" style="verticalLabelPosition=bottom;verticalAlign=top;strokeWidth=1;shape=mxgraph.mockup.graphics.iconGrid;strokeColor=#CCCCCC;gridSize=1,1;" parent="1" vertex="1">
                    <mxGeometry x="559" y="870" width="160" height="160" as="geometry"/>
                </mxCell>
                <mxCell id="kTxBf1TP1A-4oTdFgtY4-42" value="&lt;h1 style=&quot;margin-top: 0px;&quot;&gt;Our Products&lt;/h1&gt;" style="text;html=1;whiteSpace=wrap;overflow=hidden;rounded=0;align=center;" parent="1" vertex="1">
                    <mxGeometry x="165" y="790" width="510" height="40" as="geometry"/>
                </mxCell>
                <mxCell id="kTxBf1TP1A-4oTdFgtY4-44" value="&lt;b&gt;&lt;font style=&quot;font-size: 14px;&quot;&gt;200$&lt;/font&gt;&lt;/b&gt;" style="text;html=1;align=center;verticalAlign=middle;whiteSpace=wrap;rounded=0;" parent="1" vertex="1">
                    <mxGeometry x="118" y="1139" width="40" height="30" as="geometry"/>
                </mxCell>
                <mxCell id="kTxBf1TP1A-4oTdFgtY4-46" value="&lt;div style=&quot;line-height: 100%;&quot;&gt;&lt;h1 style=&quot;margin-top: 0px; line-height: 100%;&quot;&gt;&lt;span style=&quot;white-space-collapse: preserve;&quot;&gt;&lt;font style=&quot;font-size: 14px; line-height: 100%;&quot;&gt;Luxurious Elixir Rough&lt;/font&gt;&lt;/span&gt;&lt;/h1&gt;&lt;p&gt;&lt;font style=&quot;font-size: 11px; line-height: 100%;&quot;&gt;Lorem ipsum dolor sit amet, consectetur adipisicing elit, sed do eiusmod tempor incididunt ut labore et dolore magna aliqua.&lt;/font&gt;&lt;/p&gt;&lt;/div&gt;" style="text;html=1;whiteSpace=wrap;overflow=hidden;rounded=0;" parent="1" vertex="1">
                    <mxGeometry x="340" y="1030" width="160" height="140" as="geometry"/>
                </mxCell>
                <mxCell id="kTxBf1TP1A-4oTdFgtY4-47" value="&lt;b&gt;&lt;font style=&quot;font-size: 14px;&quot;&gt;200$&lt;/font&gt;&lt;/b&gt;" style="text;html=1;align=center;verticalAlign=middle;whiteSpace=wrap;rounded=0;" parent="1" vertex="1">
                    <mxGeometry x="340" y="1139" width="40" height="30" as="geometry"/>
                </mxCell>
                <mxCell id="kTxBf1TP1A-4oTdFgtY4-48" value="&lt;div style=&quot;line-height: 100%;&quot;&gt;&lt;h1 style=&quot;margin-top: 0px; line-height: 100%;&quot;&gt;&lt;span style=&quot;white-space-collapse: preserve;&quot;&gt;&lt;font style=&quot;font-size: 14px; line-height: 100%;&quot;&gt;Luxurious Elixir Rough&lt;/font&gt;&lt;/span&gt;&lt;/h1&gt;&lt;p&gt;&lt;font style=&quot;font-size: 11px; line-height: 100%;&quot;&gt;Lorem ipsum dolor sit amet, consectetur adipisicing elit, sed do eiusmod tempor incididunt ut labore et dolore magna aliqua.&lt;/font&gt;&lt;/p&gt;&lt;/div&gt;" style="text;html=1;whiteSpace=wrap;overflow=hidden;rounded=0;" parent="1" vertex="1">
                    <mxGeometry x="559" y="1030" width="160" height="140" as="geometry"/>
                </mxCell>
                <mxCell id="kTxBf1TP1A-4oTdFgtY4-49" value="&lt;b&gt;&lt;font style=&quot;font-size: 14px;&quot;&gt;200$&lt;/font&gt;&lt;/b&gt;" style="text;html=1;align=center;verticalAlign=middle;whiteSpace=wrap;rounded=0;" parent="1" vertex="1">
                    <mxGeometry x="557" y="1139" width="40" height="30" as="geometry"/>
                </mxCell>
                <mxCell id="kTxBf1TP1A-4oTdFgtY4-69" value="" style="swimlane;startSize=0;strokeColor=light-dark(#000000,#333333);" parent="1" vertex="1">
                    <mxGeometry x="60" width="720" height="2140" as="geometry"/>
                </mxCell>
                <mxCell id="kTxBf1TP1A-4oTdFgtY4-70" value="" style="verticalLabelPosition=bottom;verticalAlign=top;strokeWidth=1;shape=mxgraph.mockup.graphics.iconGrid;strokeColor=#CCCCCC;gridSize=1,1;" parent="kTxBf1TP1A-4oTdFgtY4-69" vertex="1">
                    <mxGeometry x="-60" y="1265" width="826" height="320" as="geometry"/>
                </mxCell>
                <mxCell id="kTxBf1TP1A-4oTdFgtY4-67" value="&lt;h1 style=&quot;margin-top: 0px;&quot;&gt;Perfume Year-End Sale! Up to 50% OFF&lt;/h1&gt;&lt;p&gt;&lt;span&gt;&lt;/span&gt;&lt;span&gt;&lt;/span&gt;&lt;span style=&quot;white-space-collapse: preserve;&quot;&gt;Discover an exquisite collection of premium perfumes at unbelievable prices during our exclusive Perfume Sale!&lt;/span&gt;&lt;/p&gt;" style="text;html=1;whiteSpace=wrap;overflow=hidden;rounded=0;" parent="kTxBf1TP1A-4oTdFgtY4-69" vertex="1">
                    <mxGeometry y="1335" width="380" height="170" as="geometry"/>
                </mxCell>
                <mxCell id="kTxBf1TP1A-4oTdFgtY4-75" value="shop now" style="rounded=1;whiteSpace=wrap;html=1;" parent="kTxBf1TP1A-4oTdFgtY4-69" vertex="1">
                    <mxGeometry y="1475" width="90" height="30" as="geometry"/>
                </mxCell>
                <mxCell id="kTxBf1TP1A-4oTdFgtY4-80" value="Home" style="text;html=1;align=center;verticalAlign=middle;resizable=0;points=[];autosize=1;strokeColor=none;fillColor=none;" parent="kTxBf1TP1A-4oTdFgtY4-69" vertex="1">
                    <mxGeometry x="250" y="7" width="60" height="30" as="geometry"/>
                </mxCell>
                <mxCell id="kTxBf1TP1A-4oTdFgtY4-79" value="About" style="text;html=1;align=center;verticalAlign=middle;resizable=0;points=[];autosize=1;strokeColor=none;fillColor=none;" parent="kTxBf1TP1A-4oTdFgtY4-69" vertex="1">
                    <mxGeometry x="320" y="7" width="50" height="30" as="geometry"/>
                </mxCell>
                <mxCell id="Zre4ykRQMAsjXhKFmeQh-61" value="Prodcts" style="text;html=1;align=center;verticalAlign=middle;resizable=0;points=[];autosize=1;strokeColor=none;fillColor=none;" parent="kTxBf1TP1A-4oTdFgtY4-69" vertex="1">
                    <mxGeometry x="380" y="7" width="60" height="30" as="geometry"/>
                </mxCell>
                <mxCell id="kTxBf1TP1A-4oTdFgtY4-81" value="" style="line;strokeWidth=1;strokeColor=light-dark(#000000,#666666);" parent="kTxBf1TP1A-4oTdFgtY4-69" vertex="1">
                    <mxGeometry y="1862" width="720" height="10" as="geometry"/>
                </mxCell>
                <mxCell id="kTxBf1TP1A-4oTdFgtY4-83" value="&lt;div style=&quot;line-height: 90%;&quot;&gt;&lt;h1 style=&quot;margin-top: 0px; line-height: 90%;&quot;&gt;&lt;span style=&quot;white-space-collapse: preserve;&quot;&gt;Subscribe to Our Newsletter&lt;/span&gt;&lt;/h1&gt;&lt;p&gt;&lt;span&gt;&lt;/span&gt;&lt;span&gt;&lt;/span&gt;&lt;span style=&quot;white-space-collapse: preserve;&quot;&gt;Receive Updates on New Arrivals and Special Promotions!&lt;/span&gt;&lt;/p&gt;&lt;/div&gt;" style="text;html=1;whiteSpace=wrap;overflow=hidden;rounded=0;align=center;" parent="kTxBf1TP1A-4oTdFgtY4-69" vertex="1">
                    <mxGeometry x="45" y="1638" width="630" height="140" as="geometry"/>
                </mxCell>
                <mxCell id="kTxBf1TP1A-4oTdFgtY4-84" value="&lt;font color=&quot;#999999&quot; style=&quot;&quot;&gt;&amp;nbsp; &amp;nbsp; &amp;nbsp;your email address&lt;/font&gt;" style="rounded=1;whiteSpace=wrap;html=1;align=left;" parent="kTxBf1TP1A-4oTdFgtY4-69" vertex="1">
                    <mxGeometry x="125" y="1718" width="470" height="50" as="geometry"/>
                </mxCell>
                <mxCell id="kTxBf1TP1A-4oTdFgtY4-85" value="&lt;font style=&quot;font-size: 11px;&quot;&gt;Subscribe&lt;/font&gt;" style="rounded=1;whiteSpace=wrap;html=1;" parent="kTxBf1TP1A-4oTdFgtY4-69" vertex="1">
                    <mxGeometry x="510" y="1728" width="70" height="30" as="geometry"/>
                </mxCell>
                <mxCell id="785_2pcN_aCQlDyxK6Ve-37" value="&lt;h1 style=&quot;margin-top: 0px;&quot;&gt;Logo&lt;/h1&gt;&lt;p&gt;Lorem ipsum dolor sit amet, consectetur adipisicing elit, sed do eiusmod tempor incididunt ut labore et dolore magna aliqua.&lt;/p&gt;" style="text;html=1;whiteSpace=wrap;overflow=hidden;rounded=0;" parent="kTxBf1TP1A-4oTdFgtY4-69" vertex="1">
                    <mxGeometry y="1890" width="220" height="120" as="geometry"/>
                </mxCell>
                <mxCell id="785_2pcN_aCQlDyxK6Ve-38" value="&lt;font&gt;&lt;span&gt;f&lt;/span&gt;&lt;/font&gt;" style="ellipse;whiteSpace=wrap;html=1;aspect=fixed;fontSize=16;fontStyle=1" parent="kTxBf1TP1A-4oTdFgtY4-69" vertex="1">
                    <mxGeometry y="2020" width="30" height="30" as="geometry"/>
                </mxCell>
                <mxCell id="785_2pcN_aCQlDyxK6Ve-52" value="&lt;font&gt;&lt;span&gt;t&lt;/span&gt;&lt;/font&gt;" style="ellipse;whiteSpace=wrap;html=1;aspect=fixed;fontSize=16;fontStyle=1" parent="kTxBf1TP1A-4oTdFgtY4-69" vertex="1">
                    <mxGeometry x="40" y="2020" width="30" height="30" as="geometry"/>
                </mxCell>
                <mxCell id="785_2pcN_aCQlDyxK6Ve-53" value="i" style="ellipse;whiteSpace=wrap;html=1;aspect=fixed;fontSize=16;fontStyle=1" parent="kTxBf1TP1A-4oTdFgtY4-69" vertex="1">
                    <mxGeometry x="82" y="2020" width="30" height="30" as="geometry"/>
                </mxCell>
                <mxCell id="785_2pcN_aCQlDyxK6Ve-54" value="g" style="ellipse;whiteSpace=wrap;html=1;aspect=fixed;fontSize=16;fontStyle=1" parent="kTxBf1TP1A-4oTdFgtY4-69" vertex="1">
                    <mxGeometry x="124" y="2020" width="30" height="30" as="geometry"/>
                </mxCell>
                <mxCell id="785_2pcN_aCQlDyxK6Ve-55" value="p" style="ellipse;whiteSpace=wrap;html=1;aspect=fixed;fontSize=16;fontStyle=1" parent="kTxBf1TP1A-4oTdFgtY4-69" vertex="1">
                    <mxGeometry x="168" y="2020" width="30" height="30" as="geometry"/>
                </mxCell>
                <mxCell id="785_2pcN_aCQlDyxK6Ve-57" value="&lt;font color=&quot;#999999&quot; style=&quot;font-size: 10px;&quot;&gt;© 2023 company name Inc. All rights reserved&lt;/font&gt;" style="text;html=1;align=center;verticalAlign=middle;whiteSpace=wrap;rounded=0;" parent="kTxBf1TP1A-4oTdFgtY4-69" vertex="1">
                    <mxGeometry y="2107" width="720" height="30" as="geometry"/>
                </mxCell>
                <mxCell id="785_2pcN_aCQlDyxK6Ve-59" value="" style="line;strokeWidth=1;strokeColor=light-dark(#000000,#666666);" parent="kTxBf1TP1A-4oTdFgtY4-69" vertex="1">
                    <mxGeometry y="2097" width="720" height="10" as="geometry"/>
                </mxCell>
                <mxCell id="785_2pcN_aCQlDyxK6Ve-61" value="&lt;b&gt;&lt;font style=&quot;font-size: 13px;&quot;&gt;Pages&lt;/font&gt;&lt;/b&gt;" style="text;html=1;align=left;verticalAlign=middle;resizable=0;points=[];autosize=1;strokeColor=none;fillColor=none;" parent="kTxBf1TP1A-4oTdFgtY4-69" vertex="1">
                    <mxGeometry x="315" y="1900" width="60" height="30" as="geometry"/>
                </mxCell>
                <mxCell id="785_2pcN_aCQlDyxK6Ve-62" value="Home" style="text;html=1;align=left;verticalAlign=middle;resizable=0;points=[];autosize=1;strokeColor=none;fillColor=none;" parent="kTxBf1TP1A-4oTdFgtY4-69" vertex="1">
                    <mxGeometry x="315" y="1935" width="60" height="30" as="geometry"/>
                </mxCell>
                <mxCell id="785_2pcN_aCQlDyxK6Ve-63" value="About" style="text;html=1;align=left;verticalAlign=middle;resizable=0;points=[];autosize=1;strokeColor=none;fillColor=none;" parent="kTxBf1TP1A-4oTdFgtY4-69" vertex="1">
                    <mxGeometry x="315" y="1965" width="50" height="30" as="geometry"/>
                </mxCell>
                <mxCell id="785_2pcN_aCQlDyxK6Ve-64" value="Products" style="text;html=1;align=left;verticalAlign=middle;resizable=0;points=[];autosize=1;strokeColor=none;fillColor=none;" parent="kTxBf1TP1A-4oTdFgtY4-69" vertex="1">
                    <mxGeometry x="315" y="1995" width="70" height="30" as="geometry"/>
                </mxCell>
                <mxCell id="785_2pcN_aCQlDyxK6Ve-65" value="Contact" style="text;html=1;align=left;verticalAlign=middle;resizable=0;points=[];autosize=1;strokeColor=none;fillColor=none;" parent="kTxBf1TP1A-4oTdFgtY4-69" vertex="1">
                    <mxGeometry x="315" y="2025" width="60" height="30" as="geometry"/>
                </mxCell>
                <mxCell id="785_2pcN_aCQlDyxK6Ve-66" value="&lt;b&gt;&lt;font style=&quot;font-size: 13px;&quot;&gt;About Us&lt;/font&gt;&lt;/b&gt;" style="text;html=1;align=left;verticalAlign=middle;resizable=0;points=[];autosize=1;strokeColor=none;fillColor=none;" parent="kTxBf1TP1A-4oTdFgtY4-69" vertex="1">
                    <mxGeometry x="500" y="1905" width="80" height="30" as="geometry"/>
                </mxCell>
                <mxCell id="785_2pcN_aCQlDyxK6Ve-67" value="info@perfumestore.com" style="text;html=1;align=left;verticalAlign=middle;resizable=0;points=[];autosize=1;strokeColor=none;fillColor=none;" parent="kTxBf1TP1A-4oTdFgtY4-69" vertex="1">
                    <mxGeometry x="500" y="1935" width="150" height="30" as="geometry"/>
                </mxCell>
                <mxCell id="785_2pcN_aCQlDyxK6Ve-68" value="contact@perfumestore.com" style="text;html=1;align=left;verticalAlign=middle;resizable=0;points=[];autosize=1;strokeColor=none;fillColor=none;" parent="kTxBf1TP1A-4oTdFgtY4-69" vertex="1">
                    <mxGeometry x="500" y="1960" width="170" height="30" as="geometry"/>
                </mxCell>
                <mxCell id="785_2pcN_aCQlDyxK6Ve-73" value="Lorem ipsum dolor sit amet, consectetur adipisicing elit, sed do eiusmod tempor incididunt ut labore et dolore magna aliqua." style="text;html=1;whiteSpace=wrap;overflow=hidden;rounded=0;" parent="kTxBf1TP1A-4oTdFgtY4-69" vertex="1">
                    <mxGeometry x="500" y="2010" width="220" height="70" as="geometry"/>
                </mxCell>
                <mxCell id="785_2pcN_aCQlDyxK6Ve-74" value="Sign Up" style="rounded=1;whiteSpace=wrap;html=1;" parent="kTxBf1TP1A-4oTdFgtY4-69" vertex="1">
                    <mxGeometry x="652" y="7" width="67" height="30" as="geometry"/>
                </mxCell>
                <mxCell id="147" value="check all products" style="rounded=1;whiteSpace=wrap;html=1;" parent="kTxBf1TP1A-4oTdFgtY4-69" vertex="1">
                    <mxGeometry x="282.5" y="1200" width="125" height="30" as="geometry"/>
                </mxCell>
                <mxCell id="kTxBf1TP1A-4oTdFgtY4-43" value="&lt;div style=&quot;line-height: 100%;&quot;&gt;&lt;h1 style=&quot;margin-top: 0px; line-height: 100%;&quot;&gt;&lt;span style=&quot;white-space-collapse: preserve;&quot;&gt;&lt;font style=&quot;font-size: 14px; line-height: 100%;&quot;&gt;Luxurious Elixir Rough&lt;/font&gt;&lt;/span&gt;&lt;/h1&gt;&lt;p&gt;&lt;font style=&quot;font-size: 11px; line-height: 100%;&quot;&gt;Lorem ipsum dolor sit amet, consectetur adipisicing elit, sed do eiusmod tempor incididunt ut labore et dolore magna aliqua.&lt;/font&gt;&lt;/p&gt;&lt;/div&gt;" style="text;html=1;whiteSpace=wrap;overflow=hidden;rounded=0;" parent="kTxBf1TP1A-4oTdFgtY4-69" vertex="1">
                    <mxGeometry x="59" y="1030" width="160" height="140" as="geometry"/>
                </mxCell>
                <mxCell id="39" value="" style="rounded=0;whiteSpace=wrap;html=1;labelBackgroundColor=#999999;" parent="1" vertex="1">
                    <mxGeometry x="890" y="-1" width="826" height="1511" as="geometry"/>
                </mxCell>
                <mxCell id="40" value="" style="swimlane;startSize=0;strokeColor=light-dark(#000000,#333333);" parent="1" vertex="1">
                    <mxGeometry x="943" y="-1" width="770" height="1511" as="geometry"/>
                </mxCell>
                <mxCell id="44" value="Home" style="text;html=1;align=center;verticalAlign=middle;resizable=0;points=[];autosize=1;strokeColor=none;fillColor=none;" parent="40" vertex="1">
                    <mxGeometry x="250" y="7" width="60" height="30" as="geometry"/>
                </mxCell>
                <mxCell id="45" value="About" style="text;html=1;align=center;verticalAlign=middle;resizable=0;points=[];autosize=1;strokeColor=none;fillColor=none;" parent="40" vertex="1">
                    <mxGeometry x="320" y="7" width="50" height="30" as="geometry"/>
                </mxCell>
                <mxCell id="46" value="Prodcts" style="text;html=1;align=center;verticalAlign=middle;resizable=0;points=[];autosize=1;strokeColor=none;fillColor=none;" parent="40" vertex="1">
                    <mxGeometry x="380" y="7" width="60" height="30" as="geometry"/>
                </mxCell>
                <mxCell id="47" value="" style="line;strokeWidth=1;strokeColor=light-dark(#000000,#666666);labelBackgroundColor=#999999;" parent="40" vertex="1">
                    <mxGeometry y="1230" width="720" height="10" as="geometry"/>
                </mxCell>
                <mxCell id="51" value="&lt;h1 style=&quot;margin-top: 0px;&quot;&gt;Logo&lt;/h1&gt;&lt;p&gt;Lorem ipsum dolor sit amet, consectetur adipisicing elit, sed do eiusmod tempor incididunt ut labore et dolore magna aliqua.&lt;/p&gt;" style="text;html=1;whiteSpace=wrap;overflow=hidden;rounded=0;" parent="40" vertex="1">
                    <mxGeometry y="1258" width="220" height="120" as="geometry"/>
                </mxCell>
                <mxCell id="52" value="&lt;font&gt;&lt;span&gt;f&lt;/span&gt;&lt;/font&gt;" style="ellipse;whiteSpace=wrap;html=1;aspect=fixed;fontSize=16;fontStyle=1" parent="40" vertex="1">
                    <mxGeometry y="1388" width="30" height="30" as="geometry"/>
                </mxCell>
                <mxCell id="53" value="&lt;font&gt;&lt;span&gt;t&lt;/span&gt;&lt;/font&gt;" style="ellipse;whiteSpace=wrap;html=1;aspect=fixed;fontSize=16;fontStyle=1" parent="40" vertex="1">
                    <mxGeometry x="40" y="1388" width="30" height="30" as="geometry"/>
                </mxCell>
                <mxCell id="54" value="i" style="ellipse;whiteSpace=wrap;html=1;aspect=fixed;fontSize=16;fontStyle=1" parent="40" vertex="1">
                    <mxGeometry x="82" y="1388" width="30" height="30" as="geometry"/>
                </mxCell>
                <mxCell id="55" value="g" style="ellipse;whiteSpace=wrap;html=1;aspect=fixed;fontSize=16;fontStyle=1" parent="40" vertex="1">
                    <mxGeometry x="124" y="1388" width="30" height="30" as="geometry"/>
                </mxCell>
                <mxCell id="56" value="p" style="ellipse;whiteSpace=wrap;html=1;aspect=fixed;fontSize=16;fontStyle=1" parent="40" vertex="1">
                    <mxGeometry x="168" y="1388" width="30" height="30" as="geometry"/>
                </mxCell>
                <mxCell id="57" value="&lt;font color=&quot;#999999&quot; style=&quot;font-size: 10px;&quot;&gt;© 2023 company name Inc. All rights reserved&lt;/font&gt;" style="text;html=1;align=center;verticalAlign=middle;whiteSpace=wrap;rounded=0;" parent="40" vertex="1">
                    <mxGeometry y="1475" width="720" height="30" as="geometry"/>
                </mxCell>
                <mxCell id="58" value="" style="line;strokeWidth=1;strokeColor=light-dark(#000000,#666666);labelBackgroundColor=#999999;" parent="40" vertex="1">
                    <mxGeometry y="1465" width="720" height="10" as="geometry"/>
                </mxCell>
                <mxCell id="59" value="&lt;b&gt;&lt;font style=&quot;font-size: 13px;&quot;&gt;Pages&lt;/font&gt;&lt;/b&gt;" style="text;html=1;align=left;verticalAlign=middle;resizable=0;points=[];autosize=1;strokeColor=none;fillColor=none;" parent="40" vertex="1">
                    <mxGeometry x="315" y="1268" width="60" height="30" as="geometry"/>
                </mxCell>
                <mxCell id="60" value="Home" style="text;html=1;align=left;verticalAlign=middle;resizable=0;points=[];autosize=1;strokeColor=none;fillColor=none;" parent="40" vertex="1">
                    <mxGeometry x="315" y="1303" width="60" height="30" as="geometry"/>
                </mxCell>
                <mxCell id="61" value="About" style="text;html=1;align=left;verticalAlign=middle;resizable=0;points=[];autosize=1;strokeColor=none;fillColor=none;" parent="40" vertex="1">
                    <mxGeometry x="315" y="1333" width="50" height="30" as="geometry"/>
                </mxCell>
                <mxCell id="62" value="Products" style="text;html=1;align=left;verticalAlign=middle;resizable=0;points=[];autosize=1;strokeColor=none;fillColor=none;" parent="40" vertex="1">
                    <mxGeometry x="315" y="1363" width="70" height="30" as="geometry"/>
                </mxCell>
                <mxCell id="63" value="Contact" style="text;html=1;align=left;verticalAlign=middle;resizable=0;points=[];autosize=1;strokeColor=none;fillColor=none;" parent="40" vertex="1">
                    <mxGeometry x="315" y="1393" width="60" height="30" as="geometry"/>
                </mxCell>
                <mxCell id="64" value="&lt;b&gt;&lt;font style=&quot;font-size: 13px;&quot;&gt;About Us&lt;/font&gt;&lt;/b&gt;" style="text;html=1;align=left;verticalAlign=middle;resizable=0;points=[];autosize=1;strokeColor=none;fillColor=none;" parent="40" vertex="1">
                    <mxGeometry x="500" y="1273" width="80" height="30" as="geometry"/>
                </mxCell>
                <mxCell id="65" value="info@perfumestore.com" style="text;html=1;align=left;verticalAlign=middle;resizable=0;points=[];autosize=1;strokeColor=none;fillColor=none;" parent="40" vertex="1">
                    <mxGeometry x="500" y="1303" width="150" height="30" as="geometry"/>
                </mxCell>
                <mxCell id="66" value="contact@perfumestore.com" style="text;html=1;align=left;verticalAlign=middle;resizable=0;points=[];autosize=1;strokeColor=none;fillColor=none;" parent="40" vertex="1">
                    <mxGeometry x="500" y="1328" width="170" height="30" as="geometry"/>
                </mxCell>
                <mxCell id="67" value="Lorem ipsum dolor sit amet, consectetur adipisicing elit, sed do eiusmod tempor incididunt ut labore et dolore magna aliqua." style="text;html=1;whiteSpace=wrap;overflow=hidden;rounded=0;" parent="40" vertex="1">
                    <mxGeometry x="500" y="1378" width="220" height="70" as="geometry"/>
                </mxCell>
                <mxCell id="68" value="Sign Up" style="rounded=1;whiteSpace=wrap;html=1;" parent="40" vertex="1">
                    <mxGeometry x="652" y="7" width="67" height="30" as="geometry"/>
                </mxCell>
                <mxCell id="71" value="" style="line;strokeWidth=1;strokeColor=light-dark(#000000,#666666);labelBackgroundColor=#999999;" parent="40" vertex="1">
                    <mxGeometry y="37" width="720" height="10" as="geometry"/>
                </mxCell>
                <mxCell id="192" value="" style="verticalLabelPosition=bottom;verticalAlign=top;strokeWidth=1;shape=mxgraph.mockup.graphics.iconGrid;strokeColor=#CCCCCC;gridSize=1,1;" parent="40" vertex="1">
                    <mxGeometry x="-53" y="71" width="825" height="309" as="geometry"/>
                </mxCell>
                <mxCell id="194" value="&lt;h1&gt;About Us&lt;/h1&gt;&lt;p&gt;&lt;/p&gt;&lt;span style=&quot;&quot;&gt;&lt;font color=&quot;#cccccc&quot;&gt;At perfume store, we believe that perfumes are more than just scents; they are expressions of one's individuality and style. Our passion for exquisite fragrances led us to curate a collection that captures the essence of diverse personalities, bringing you an unparalleled olfactory experience.&lt;/font&gt;&lt;/span&gt;" style="text;html=1;strokeColor=none;fillColor=none;spacing=5;spacingTop=-20;whiteSpace=wrap;overflow=hidden;rounded=0;align=center;" parent="40" vertex="1">
                    <mxGeometry x="110" y="165.5" width="500" height="120" as="geometry"/>
                </mxCell>
                <mxCell id="69" value="Logo" style="text;html=1;align=left;verticalAlign=middle;resizable=0;points=[];autosize=1;strokeColor=none;fillColor=none;fontSize=17;" parent="1" vertex="1">
                    <mxGeometry x="943" y="9" width="60" height="30" as="geometry"/>
                </mxCell>
                <mxCell id="86" value="&lt;font color=&quot;#000000&quot;&gt;&lt;b&gt;&lt;i&gt;&lt;u&gt;Home Page&lt;/u&gt;&lt;/i&gt;&lt;/b&gt;&lt;/font&gt;" style="text;html=1;align=center;verticalAlign=middle;resizable=0;points=[];autosize=1;strokeColor=none;fillColor=none;fontColor=#B3B3B3;labelBackgroundColor=#B3B3B3;labelBorderColor=default;spacingTop=0;spacing=5;" parent="1" vertex="1">
                    <mxGeometry x="-5" y="-45" width="90" height="30" as="geometry"/>
                </mxCell>
                <mxCell id="87" value="&lt;font color=&quot;#000000&quot;&gt;&lt;b&gt;&lt;i&gt;&lt;u&gt;About Us Page&lt;/u&gt;&lt;/i&gt;&lt;/b&gt;&lt;/font&gt;" style="text;html=1;align=center;verticalAlign=middle;resizable=0;points=[];autosize=1;strokeColor=none;fillColor=none;fontColor=#B3B3B3;labelBackgroundColor=#B3B3B3;labelBorderColor=default;spacingTop=0;spacing=5;" parent="1" vertex="1">
                    <mxGeometry x="880" y="-45" width="110" height="30" as="geometry"/>
                </mxCell>
                <mxCell id="88" value="" style="rounded=0;whiteSpace=wrap;html=1;labelBackgroundColor=#999999;" parent="1" vertex="1">
                    <mxGeometry x="1790" width="826" height="1460" as="geometry"/>
                </mxCell>
                <mxCell id="89" value="" style="swimlane;startSize=0;strokeColor=light-dark(#000000,#333333);" parent="1" vertex="1">
                    <mxGeometry x="1843" width="720" height="1460" as="geometry"/>
                </mxCell>
                <mxCell id="90" value="Home" style="text;html=1;align=center;verticalAlign=middle;resizable=0;points=[];autosize=1;strokeColor=none;fillColor=none;" parent="89" vertex="1">
                    <mxGeometry x="250" y="7" width="60" height="30" as="geometry"/>
                </mxCell>
                <mxCell id="91" value="About" style="text;html=1;align=center;verticalAlign=middle;resizable=0;points=[];autosize=1;strokeColor=none;fillColor=none;" parent="89" vertex="1">
                    <mxGeometry x="320" y="7" width="50" height="30" as="geometry"/>
                </mxCell>
                <mxCell id="92" value="Prodcts" style="text;html=1;align=center;verticalAlign=middle;resizable=0;points=[];autosize=1;strokeColor=none;fillColor=none;" parent="89" vertex="1">
                    <mxGeometry x="380" y="7" width="60" height="30" as="geometry"/>
                </mxCell>
                <mxCell id="93" value="" style="line;strokeWidth=1;strokeColor=light-dark(#000000,#666666);labelBackgroundColor=#999999;" parent="89" vertex="1">
                    <mxGeometry y="1174" width="720" height="10" as="geometry"/>
                </mxCell>
                <mxCell id="94" value="&lt;h1 style=&quot;margin-top: 0px;&quot;&gt;Logo&lt;/h1&gt;&lt;p&gt;Lorem ipsum dolor sit amet, consectetur adipisicing elit, sed do eiusmod tempor incididunt ut labore et dolore magna aliqua.&lt;/p&gt;" style="text;html=1;whiteSpace=wrap;overflow=hidden;rounded=0;" parent="89" vertex="1">
                    <mxGeometry y="1202" width="220" height="120" as="geometry"/>
                </mxCell>
                <mxCell id="95" value="&lt;font&gt;&lt;span&gt;f&lt;/span&gt;&lt;/font&gt;" style="ellipse;whiteSpace=wrap;html=1;aspect=fixed;fontSize=16;fontStyle=1" parent="89" vertex="1">
                    <mxGeometry y="1332" width="30" height="30" as="geometry"/>
                </mxCell>
                <mxCell id="96" value="&lt;font&gt;&lt;span&gt;t&lt;/span&gt;&lt;/font&gt;" style="ellipse;whiteSpace=wrap;html=1;aspect=fixed;fontSize=16;fontStyle=1" parent="89" vertex="1">
                    <mxGeometry x="40" y="1332" width="30" height="30" as="geometry"/>
                </mxCell>
                <mxCell id="97" value="i" style="ellipse;whiteSpace=wrap;html=1;aspect=fixed;fontSize=16;fontStyle=1" parent="89" vertex="1">
                    <mxGeometry x="82" y="1332" width="30" height="30" as="geometry"/>
                </mxCell>
                <mxCell id="98" value="g" style="ellipse;whiteSpace=wrap;html=1;aspect=fixed;fontSize=16;fontStyle=1" parent="89" vertex="1">
                    <mxGeometry x="124" y="1332" width="30" height="30" as="geometry"/>
                </mxCell>
                <mxCell id="99" value="p" style="ellipse;whiteSpace=wrap;html=1;aspect=fixed;fontSize=16;fontStyle=1" parent="89" vertex="1">
                    <mxGeometry x="168" y="1332" width="30" height="30" as="geometry"/>
                </mxCell>
                <mxCell id="100" value="&lt;font color=&quot;#999999&quot; style=&quot;font-size: 10px;&quot;&gt;© 2023 company name Inc. All rights reserved&lt;/font&gt;" style="text;html=1;align=center;verticalAlign=middle;whiteSpace=wrap;rounded=0;" parent="89" vertex="1">
                    <mxGeometry y="1419" width="720" height="30" as="geometry"/>
                </mxCell>
                <mxCell id="101" value="" style="line;strokeWidth=1;strokeColor=light-dark(#000000,#666666);labelBackgroundColor=#999999;" parent="89" vertex="1">
                    <mxGeometry y="1409" width="720" height="10" as="geometry"/>
                </mxCell>
                <mxCell id="102" value="&lt;b&gt;&lt;font style=&quot;font-size: 13px;&quot;&gt;Pages&lt;/font&gt;&lt;/b&gt;" style="text;html=1;align=left;verticalAlign=middle;resizable=0;points=[];autosize=1;strokeColor=none;fillColor=none;" parent="89" vertex="1">
                    <mxGeometry x="315" y="1212" width="60" height="30" as="geometry"/>
                </mxCell>
                <mxCell id="103" value="Home" style="text;html=1;align=left;verticalAlign=middle;resizable=0;points=[];autosize=1;strokeColor=none;fillColor=none;" parent="89" vertex="1">
                    <mxGeometry x="315" y="1247" width="60" height="30" as="geometry"/>
                </mxCell>
                <mxCell id="104" value="About" style="text;html=1;align=left;verticalAlign=middle;resizable=0;points=[];autosize=1;strokeColor=none;fillColor=none;" parent="89" vertex="1">
                    <mxGeometry x="315" y="1277" width="50" height="30" as="geometry"/>
                </mxCell>
                <mxCell id="105" value="Products" style="text;html=1;align=left;verticalAlign=middle;resizable=0;points=[];autosize=1;strokeColor=none;fillColor=none;" parent="89" vertex="1">
                    <mxGeometry x="315" y="1307" width="70" height="30" as="geometry"/>
                </mxCell>
                <mxCell id="106" value="Contact" style="text;html=1;align=left;verticalAlign=middle;resizable=0;points=[];autosize=1;strokeColor=none;fillColor=none;" parent="89" vertex="1">
                    <mxGeometry x="315" y="1337" width="60" height="30" as="geometry"/>
                </mxCell>
                <mxCell id="107" value="&lt;b&gt;&lt;font style=&quot;font-size: 13px;&quot;&gt;About Us&lt;/font&gt;&lt;/b&gt;" style="text;html=1;align=left;verticalAlign=middle;resizable=0;points=[];autosize=1;strokeColor=none;fillColor=none;" parent="89" vertex="1">
                    <mxGeometry x="500" y="1217" width="80" height="30" as="geometry"/>
                </mxCell>
                <mxCell id="108" value="info@perfumestore.com" style="text;html=1;align=left;verticalAlign=middle;resizable=0;points=[];autosize=1;strokeColor=none;fillColor=none;" parent="89" vertex="1">
                    <mxGeometry x="500" y="1247" width="150" height="30" as="geometry"/>
                </mxCell>
                <mxCell id="109" value="contact@perfumestore.com" style="text;html=1;align=left;verticalAlign=middle;resizable=0;points=[];autosize=1;strokeColor=none;fillColor=none;" parent="89" vertex="1">
                    <mxGeometry x="500" y="1272" width="170" height="30" as="geometry"/>
                </mxCell>
                <mxCell id="110" value="Lorem ipsum dolor sit amet, consectetur adipisicing elit, sed do eiusmod tempor incididunt ut labore et dolore magna aliqua." style="text;html=1;whiteSpace=wrap;overflow=hidden;rounded=0;" parent="89" vertex="1">
                    <mxGeometry x="500" y="1322" width="220" height="70" as="geometry"/>
                </mxCell>
                <mxCell id="111" value="Sign Up" style="rounded=1;whiteSpace=wrap;html=1;" parent="89" vertex="1">
                    <mxGeometry x="652" y="7" width="67" height="30" as="geometry"/>
                </mxCell>
                <mxCell id="112" value="" style="line;strokeWidth=1;strokeColor=light-dark(#000000,#666666);labelBackgroundColor=#999999;" parent="89" vertex="1">
                    <mxGeometry y="37" width="720" height="10" as="geometry"/>
                </mxCell>
                <mxCell id="166" value="" style="verticalLabelPosition=bottom;verticalAlign=top;strokeWidth=1;shape=mxgraph.mockup.graphics.iconGrid;strokeColor=#CCCCCC;gridSize=1,1;" parent="89" vertex="1">
                    <mxGeometry x="496" y="472" width="160" height="160" as="geometry"/>
                </mxCell>
                <mxCell id="167" value="&lt;div style=&quot;line-height: 100%;&quot;&gt;&lt;h1 style=&quot;margin-top: 0px; line-height: 100%;&quot;&gt;&lt;span style=&quot;white-space-collapse: preserve;&quot;&gt;&lt;font style=&quot;font-size: 14px; line-height: 100%;&quot;&gt;Luxurious Elixir Rough&lt;/font&gt;&lt;/span&gt;&lt;/h1&gt;&lt;p&gt;&lt;font style=&quot;font-size: 11px; line-height: 100%;&quot;&gt;Lorem ipsum dolor sit amet, consectetur adipisicing elit, sed do eiusmod tempor incididunt ut labore et dolore magna aliqua.&lt;/font&gt;&lt;/p&gt;&lt;/div&gt;" style="text;html=1;whiteSpace=wrap;overflow=hidden;rounded=0;" parent="89" vertex="1">
                    <mxGeometry x="496" y="632" width="160" height="140" as="geometry"/>
                </mxCell>
                <mxCell id="168" value="&lt;b&gt;&lt;font style=&quot;font-size: 14px;&quot;&gt;200$&lt;/font&gt;&lt;/b&gt;" style="text;html=1;align=center;verticalAlign=middle;whiteSpace=wrap;rounded=0;" parent="89" vertex="1">
                    <mxGeometry x="494" y="741" width="40" height="30" as="geometry"/>
                </mxCell>
                <mxCell id="169" value="" style="verticalLabelPosition=bottom;verticalAlign=top;strokeWidth=1;shape=mxgraph.mockup.graphics.iconGrid;strokeColor=#CCCCCC;gridSize=1,1;" parent="89" vertex="1">
                    <mxGeometry x="278" y="471" width="160" height="160" as="geometry"/>
                </mxCell>
                <mxCell id="170" value="&lt;div style=&quot;line-height: 100%;&quot;&gt;&lt;h1 style=&quot;margin-top: 0px; line-height: 100%;&quot;&gt;&lt;span style=&quot;white-space-collapse: preserve;&quot;&gt;&lt;font style=&quot;font-size: 14px; line-height: 100%;&quot;&gt;Luxurious Elixir Rough&lt;/font&gt;&lt;/span&gt;&lt;/h1&gt;&lt;p&gt;&lt;font style=&quot;font-size: 11px; line-height: 100%;&quot;&gt;Lorem ipsum dolor sit amet, consectetur adipisicing elit, sed do eiusmod tempor incididunt ut labore et dolore magna aliqua.&lt;/font&gt;&lt;/p&gt;&lt;/div&gt;" style="text;html=1;whiteSpace=wrap;overflow=hidden;rounded=0;" parent="89" vertex="1">
                    <mxGeometry x="278" y="631" width="160" height="140" as="geometry"/>
                </mxCell>
                <mxCell id="171" value="&lt;b&gt;&lt;font style=&quot;font-size: 14px;&quot;&gt;200$&lt;/font&gt;&lt;/b&gt;" style="text;html=1;align=center;verticalAlign=middle;whiteSpace=wrap;rounded=0;" parent="89" vertex="1">
                    <mxGeometry x="276" y="740" width="40" height="30" as="geometry"/>
                </mxCell>
                <mxCell id="172" value="&lt;div style=&quot;line-height: 100%;&quot;&gt;&lt;h1 style=&quot;margin-top: 0px; line-height: 100%;&quot;&gt;&lt;span style=&quot;white-space-collapse: preserve;&quot;&gt;&lt;font style=&quot;font-size: 14px; line-height: 100%;&quot;&gt;Luxurious Elixir Rough&lt;/font&gt;&lt;/span&gt;&lt;/h1&gt;&lt;p&gt;&lt;font style=&quot;font-size: 11px; line-height: 100%;&quot;&gt;Lorem ipsum dolor sit amet, consectetur adipisicing elit, sed do eiusmod tempor incididunt ut labore et dolore magna aliqua.&lt;/font&gt;&lt;/p&gt;&lt;/div&gt;" style="text;html=1;whiteSpace=wrap;overflow=hidden;rounded=0;" parent="89" vertex="1">
                    <mxGeometry x="46" y="630" width="160" height="140" as="geometry"/>
                </mxCell>
                <mxCell id="173" value="&lt;b&gt;&lt;font style=&quot;font-size: 14px;&quot;&gt;200$&lt;/font&gt;&lt;/b&gt;" style="text;html=1;align=center;verticalAlign=middle;whiteSpace=wrap;rounded=0;" parent="89" vertex="1">
                    <mxGeometry x="44" y="739" width="40" height="30" as="geometry"/>
                </mxCell>
                <mxCell id="174" value="" style="verticalLabelPosition=bottom;verticalAlign=top;strokeWidth=1;shape=mxgraph.mockup.graphics.iconGrid;strokeColor=#CCCCCC;gridSize=1,1;" parent="89" vertex="1">
                    <mxGeometry x="46" y="470" width="160" height="160" as="geometry"/>
                </mxCell>
                <mxCell id="175" value="" style="verticalLabelPosition=bottom;verticalAlign=top;strokeWidth=1;shape=mxgraph.mockup.graphics.iconGrid;strokeColor=#CCCCCC;gridSize=1,1;" parent="89" vertex="1">
                    <mxGeometry x="498" y="792" width="160" height="160" as="geometry"/>
                </mxCell>
                <mxCell id="176" value="&lt;div style=&quot;line-height: 100%;&quot;&gt;&lt;h1 style=&quot;margin-top: 0px; line-height: 100%;&quot;&gt;&lt;span style=&quot;white-space-collapse: preserve;&quot;&gt;&lt;font style=&quot;font-size: 14px; line-height: 100%;&quot;&gt;Luxurious Elixir Rough&lt;/font&gt;&lt;/span&gt;&lt;/h1&gt;&lt;p&gt;&lt;font style=&quot;font-size: 11px; line-height: 100%;&quot;&gt;Lorem ipsum dolor sit amet, consectetur adipisicing elit, sed do eiusmod tempor incididunt ut labore et dolore magna aliqua.&lt;/font&gt;&lt;/p&gt;&lt;/div&gt;" style="text;html=1;whiteSpace=wrap;overflow=hidden;rounded=0;" parent="89" vertex="1">
                    <mxGeometry x="498" y="952" width="160" height="140" as="geometry"/>
                </mxCell>
                <mxCell id="177" value="&lt;b&gt;&lt;font style=&quot;font-size: 14px;&quot;&gt;200$&lt;/font&gt;&lt;/b&gt;" style="text;html=1;align=center;verticalAlign=middle;whiteSpace=wrap;rounded=0;" parent="89" vertex="1">
                    <mxGeometry x="496" y="1061" width="40" height="30" as="geometry"/>
                </mxCell>
                <mxCell id="178" value="" style="verticalLabelPosition=bottom;verticalAlign=top;strokeWidth=1;shape=mxgraph.mockup.graphics.iconGrid;strokeColor=#CCCCCC;gridSize=1,1;" parent="89" vertex="1">
                    <mxGeometry x="280" y="791" width="160" height="160" as="geometry"/>
                </mxCell>
                <mxCell id="179" value="&lt;div style=&quot;line-height: 100%;&quot;&gt;&lt;h1 style=&quot;margin-top: 0px; line-height: 100%;&quot;&gt;&lt;span style=&quot;white-space-collapse: preserve;&quot;&gt;&lt;font style=&quot;font-size: 14px; line-height: 100%;&quot;&gt;Luxurious Elixir Rough&lt;/font&gt;&lt;/span&gt;&lt;/h1&gt;&lt;p&gt;&lt;font style=&quot;font-size: 11px; line-height: 100%;&quot;&gt;Lorem ipsum dolor sit amet, consectetur adipisicing elit, sed do eiusmod tempor incididunt ut labore et dolore magna aliqua.&lt;/font&gt;&lt;/p&gt;&lt;/div&gt;" style="text;html=1;whiteSpace=wrap;overflow=hidden;rounded=0;" parent="89" vertex="1">
                    <mxGeometry x="280" y="951" width="160" height="140" as="geometry"/>
                </mxCell>
                <mxCell id="180" value="&lt;b&gt;&lt;font style=&quot;font-size: 14px;&quot;&gt;200$&lt;/font&gt;&lt;/b&gt;" style="text;html=1;align=center;verticalAlign=middle;whiteSpace=wrap;rounded=0;" parent="89" vertex="1">
                    <mxGeometry x="278" y="1060" width="40" height="30" as="geometry"/>
                </mxCell>
                <mxCell id="181" value="&lt;div style=&quot;line-height: 100%;&quot;&gt;&lt;h1 style=&quot;margin-top: 0px; line-height: 100%;&quot;&gt;&lt;span style=&quot;white-space-collapse: preserve;&quot;&gt;&lt;font style=&quot;font-size: 14px; line-height: 100%;&quot;&gt;Luxurious Elixir Rough&lt;/font&gt;&lt;/span&gt;&lt;/h1&gt;&lt;p&gt;&lt;font style=&quot;font-size: 11px; line-height: 100%;&quot;&gt;Lorem ipsum dolor sit amet, consectetur adipisicing elit, sed do eiusmod tempor incididunt ut labore et dolore magna aliqua.&lt;/font&gt;&lt;/p&gt;&lt;/div&gt;" style="text;html=1;whiteSpace=wrap;overflow=hidden;rounded=0;" parent="89" vertex="1">
                    <mxGeometry x="48" y="950" width="160" height="140" as="geometry"/>
                </mxCell>
                <mxCell id="182" value="&lt;b&gt;&lt;font style=&quot;font-size: 14px;&quot;&gt;200$&lt;/font&gt;&lt;/b&gt;" style="text;html=1;align=center;verticalAlign=middle;whiteSpace=wrap;rounded=0;" parent="89" vertex="1">
                    <mxGeometry x="46" y="1059" width="40" height="30" as="geometry"/>
                </mxCell>
                <mxCell id="183" value="" style="verticalLabelPosition=bottom;verticalAlign=top;strokeWidth=1;shape=mxgraph.mockup.graphics.iconGrid;strokeColor=#CCCCCC;gridSize=1,1;" parent="89" vertex="1">
                    <mxGeometry x="48" y="790" width="160" height="160" as="geometry"/>
                </mxCell>
                <mxCell id="187" value="" style="rounded=1;whiteSpace=wrap;html=1;fontStyle=1" parent="89" vertex="1">
                    <mxGeometry x="397.75" y="1120" width="30" height="30" as="geometry"/>
                </mxCell>
                <mxCell id="186" value="1 / 10" style="rounded=1;whiteSpace=wrap;html=1;" parent="89" vertex="1">
                    <mxGeometry x="331.25" y="1120" width="58.5" height="30" as="geometry"/>
                </mxCell>
                <mxCell id="185" value="" style="rounded=1;whiteSpace=wrap;html=1;" parent="89" vertex="1">
                    <mxGeometry x="292.25" y="1120" width="30" height="30" as="geometry"/>
                </mxCell>
                <mxCell id="190" value="" style="endArrow=classic;html=1;rounded=0;" parent="89" edge="1">
                    <mxGeometry width="50" height="50" relative="1" as="geometry">
                        <mxPoint x="404.87" y="1135" as="sourcePoint"/>
                        <mxPoint x="420.62" y="1134.8999999999999" as="targetPoint"/>
                    </mxGeometry>
                </mxCell>
                <mxCell id="191" value="" style="endArrow=classic;html=1;rounded=0;" parent="89" edge="1">
                    <mxGeometry width="50" height="50" relative="1" as="geometry">
                        <mxPoint x="315.1200000000001" y="1134.9923711340202" as="sourcePoint"/>
                        <mxPoint x="299.3700000000001" y="1134.89237113402" as="targetPoint"/>
                    </mxGeometry>
                </mxCell>
                <mxCell id="113" value="Logo" style="text;html=1;align=left;verticalAlign=middle;resizable=0;points=[];autosize=1;strokeColor=none;fillColor=none;fontSize=17;" parent="1" vertex="1">
                    <mxGeometry x="1843" y="10" width="60" height="30" as="geometry"/>
                </mxCell>
                <mxCell id="114" value="&lt;font color=&quot;#000000&quot;&gt;&lt;b&gt;&lt;i&gt;&lt;u&gt;Products Page&lt;/u&gt;&lt;/i&gt;&lt;/b&gt;&lt;/font&gt;" style="text;html=1;align=center;verticalAlign=middle;resizable=0;points=[];autosize=1;strokeColor=none;fillColor=none;fontColor=#B3B3B3;labelBackgroundColor=#B3B3B3;labelBorderColor=default;spacingTop=0;spacing=5;" parent="1" vertex="1">
                    <mxGeometry x="1780" y="-44" width="110" height="30" as="geometry"/>
                </mxCell>
                <mxCell id="115" value="" style="group" parent="1" vertex="1" connectable="0">
                    <mxGeometry x="-390" y="930" width="40" height="40" as="geometry"/>
                </mxCell>
                <mxCell id="kTxBf1TP1A-4oTdFgtY4-61" value="" style="endArrow=classic;html=1;rounded=0;" parent="115" edge="1">
                    <mxGeometry width="50" height="50" relative="1" as="geometry">
                        <mxPoint x="30" y="19.860000000000014" as="sourcePoint"/>
                        <mxPoint x="10" y="19.860000000000014" as="targetPoint"/>
                    </mxGeometry>
                </mxCell>
                <mxCell id="117" value="" style="group" parent="1" vertex="1" connectable="0">
                    <mxGeometry x="-350" y="930" width="40" height="40" as="geometry"/>
                </mxCell>
                <mxCell id="kTxBf1TP1A-4oTdFgtY4-57" value="" style="ellipse;whiteSpace=wrap;html=1;aspect=fixed;" parent="117" vertex="1">
                    <mxGeometry width="40" height="40" as="geometry"/>
                </mxCell>
                <mxCell id="kTxBf1TP1A-4oTdFgtY4-55" value="" style="endArrow=classic;html=1;rounded=0;" parent="117" edge="1">
                    <mxGeometry width="50" height="50" relative="1" as="geometry">
                        <mxPoint x="10" y="19.83000000000004" as="sourcePoint"/>
                        <mxPoint x="30" y="19.83000000000004" as="targetPoint"/>
                    </mxGeometry>
                </mxCell>
                <mxCell id="148" value="Home &amp;gt; Products" style="text;html=1;strokeColor=none;fillColor=none;align=center;verticalAlign=middle;whiteSpace=wrap;rounded=0;" parent="1" vertex="1">
                    <mxGeometry x="1846" y="47" width="123" height="30" as="geometry"/>
                </mxCell>
                <mxCell id="149" value="&lt;b&gt;&lt;font style=&quot;font-size: 17px;&quot;&gt;Our Products&lt;/font&gt;&lt;/b&gt;" style="text;html=1;strokeColor=none;fillColor=none;align=left;verticalAlign=middle;whiteSpace=wrap;rounded=0;" parent="1" vertex="1">
                    <mxGeometry x="1860" y="77" width="143" height="30" as="geometry"/>
                </mxCell>
                <mxCell id="156" value="" style="verticalLabelPosition=bottom;verticalAlign=top;strokeWidth=1;shape=mxgraph.mockup.graphics.iconGrid;strokeColor=#CCCCCC;gridSize=1,1;" parent="1" vertex="1">
                    <mxGeometry x="2342" y="135" width="160" height="160" as="geometry"/>
                </mxCell>
                <mxCell id="157" value="&lt;div style=&quot;line-height: 100%;&quot;&gt;&lt;h1 style=&quot;margin-top: 0px; line-height: 100%;&quot;&gt;&lt;span style=&quot;white-space-collapse: preserve;&quot;&gt;&lt;font style=&quot;font-size: 14px; line-height: 100%;&quot;&gt;Luxurious Elixir Rough&lt;/font&gt;&lt;/span&gt;&lt;/h1&gt;&lt;p&gt;&lt;font style=&quot;font-size: 11px; line-height: 100%;&quot;&gt;Lorem ipsum dolor sit amet, consectetur adipisicing elit, sed do eiusmod tempor incididunt ut labore et dolore magna aliqua.&lt;/font&gt;&lt;/p&gt;&lt;/div&gt;" style="text;html=1;whiteSpace=wrap;overflow=hidden;rounded=0;" parent="1" vertex="1">
                    <mxGeometry x="2342" y="295" width="160" height="140" as="geometry"/>
                </mxCell>
                <mxCell id="158" value="&lt;b&gt;&lt;font style=&quot;font-size: 14px;&quot;&gt;200$&lt;/font&gt;&lt;/b&gt;" style="text;html=1;align=center;verticalAlign=middle;whiteSpace=wrap;rounded=0;" parent="1" vertex="1">
                    <mxGeometry x="2340" y="404" width="40" height="30" as="geometry"/>
                </mxCell>
                <mxCell id="159" value="" style="verticalLabelPosition=bottom;verticalAlign=top;strokeWidth=1;shape=mxgraph.mockup.graphics.iconGrid;strokeColor=#CCCCCC;gridSize=1,1;" parent="1" vertex="1">
                    <mxGeometry x="2124" y="134" width="160" height="160" as="geometry"/>
                </mxCell>
                <mxCell id="160" value="&lt;div style=&quot;line-height: 100%;&quot;&gt;&lt;h1 style=&quot;margin-top: 0px; line-height: 100%;&quot;&gt;&lt;span style=&quot;white-space-collapse: preserve;&quot;&gt;&lt;font style=&quot;font-size: 14px; line-height: 100%;&quot;&gt;Luxurious Elixir Rough&lt;/font&gt;&lt;/span&gt;&lt;/h1&gt;&lt;p&gt;&lt;font style=&quot;font-size: 11px; line-height: 100%;&quot;&gt;Lorem ipsum dolor sit amet, consectetur adipisicing elit, sed do eiusmod tempor incididunt ut labore et dolore magna aliqua.&lt;/font&gt;&lt;/p&gt;&lt;/div&gt;" style="text;html=1;whiteSpace=wrap;overflow=hidden;rounded=0;" parent="1" vertex="1">
                    <mxGeometry x="2124" y="294" width="160" height="140" as="geometry"/>
                </mxCell>
                <mxCell id="161" value="&lt;b&gt;&lt;font style=&quot;font-size: 14px;&quot;&gt;200$&lt;/font&gt;&lt;/b&gt;" style="text;html=1;align=center;verticalAlign=middle;whiteSpace=wrap;rounded=0;" parent="1" vertex="1">
                    <mxGeometry x="2122" y="403" width="40" height="30" as="geometry"/>
                </mxCell>
                <mxCell id="163" value="&lt;div style=&quot;line-height: 100%;&quot;&gt;&lt;h1 style=&quot;margin-top: 0px; line-height: 100%;&quot;&gt;&lt;span style=&quot;white-space-collapse: preserve;&quot;&gt;&lt;font style=&quot;font-size: 14px; line-height: 100%;&quot;&gt;Luxurious Elixir Rough&lt;/font&gt;&lt;/span&gt;&lt;/h1&gt;&lt;p&gt;&lt;font style=&quot;font-size: 11px; line-height: 100%;&quot;&gt;Lorem ipsum dolor sit amet, consectetur adipisicing elit, sed do eiusmod tempor incididunt ut labore et dolore magna aliqua.&lt;/font&gt;&lt;/p&gt;&lt;/div&gt;" style="text;html=1;whiteSpace=wrap;overflow=hidden;rounded=0;" parent="1" vertex="1">
                    <mxGeometry x="1892" y="293" width="160" height="140" as="geometry"/>
                </mxCell>
                <mxCell id="164" value="&lt;b&gt;&lt;font style=&quot;font-size: 14px;&quot;&gt;200$&lt;/font&gt;&lt;/b&gt;" style="text;html=1;align=center;verticalAlign=middle;whiteSpace=wrap;rounded=0;" parent="1" vertex="1">
                    <mxGeometry x="1890" y="402" width="40" height="30" as="geometry"/>
                </mxCell>
                <mxCell id="165" value="" style="verticalLabelPosition=bottom;verticalAlign=top;strokeWidth=1;shape=mxgraph.mockup.graphics.iconGrid;strokeColor=#CCCCCC;gridSize=1,1;" parent="1" vertex="1">
                    <mxGeometry x="1892" y="133" width="160" height="160" as="geometry"/>
                </mxCell>
                <mxCell id="193" value="Home &amp;gt; About" style="text;html=1;strokeColor=none;fillColor=none;align=center;verticalAlign=middle;whiteSpace=wrap;rounded=0;" parent="1" vertex="1">
                    <mxGeometry x="943" y="40" width="100" height="30" as="geometry"/>
                </mxCell>
                <mxCell id="195" value="&lt;p style=&quot;line-height: 130%;&quot;&gt;&lt;/p&gt;&lt;h1&gt;&lt;/h1&gt;&lt;span style=&quot;font-size: 24px;&quot;&gt;&lt;b&gt;Our Story&lt;br&gt;&lt;/b&gt;&lt;/span&gt;&lt;span style=&quot;&quot;&gt;&lt;font color=&quot;#cccccc&quot;&gt;Perfume store was founded by a group of perfume enthusiasts with a shared vision to create a haven for perfume lovers seeking authentic, locally-inspired fragrances. Inspired by the diversity and richness of cultures around the world, we set out on a journey to curate a collection of scents that capture the essence of each region. Our aim is to bring you closer to the heart and soul of different cultures through the art of perfumery.&lt;/font&gt;&lt;/span&gt;&lt;p&gt;&lt;/p&gt;" style="text;html=1;strokeColor=none;fillColor=none;spacing=5;spacingTop=-20;whiteSpace=wrap;overflow=hidden;rounded=0;align=center;" parent="1" vertex="1">
                    <mxGeometry x="1053" y="432" width="500" height="118" as="geometry"/>
                </mxCell>
                <mxCell id="196" value="" style="verticalLabelPosition=bottom;verticalAlign=top;strokeWidth=1;shape=mxgraph.mockup.graphics.iconGrid;strokeColor=#CCCCCC;gridSize=1,1;" parent="1" vertex="1">
                    <mxGeometry x="890" y="600" width="825" height="309" as="geometry"/>
                </mxCell>
                <mxCell id="198" value="&lt;b style=&quot;&quot;&gt;&lt;font color=&quot;#ffffff&quot; style=&quot;font-size: 20px;&quot;&gt;What Makes Us Unique&lt;/font&gt;&lt;br&gt;&lt;/b&gt;" style="text;html=1;strokeColor=none;fillColor=none;align=center;verticalAlign=middle;whiteSpace=wrap;rounded=0;fontSize=12;fontColor=#B3B3B3;" parent="1" vertex="1">
                    <mxGeometry x="1172" y="960" width="262" height="40" as="geometry"/>
                </mxCell>
                <mxCell id="203" value="&lt;h1 style=&quot;font-size: 16px;&quot;&gt;&lt;/h1&gt;&lt;font style=&quot;font-size: 14px;&quot;&gt;&lt;b style=&quot;&quot;&gt;&lt;font color=&quot;#ffffff&quot; style=&quot;font-size: 14px;&quot;&gt;Locally Inspired&lt;br&gt;&lt;/font&gt;&lt;/b&gt;&lt;b style=&quot;&quot;&gt;&lt;font style=&quot;font-size: 14px;&quot;&gt;&lt;br&gt;&lt;/font&gt;&lt;/b&gt;&lt;/font&gt;&lt;font style=&quot;font-size: 12px;&quot;&gt;Our perfumes are meticulously crafted to reflect the cultural heritage, traditions, and landscapes of various regions. From the vibrant streets of Marrakech to the serene cherry blossom gardens of Kyoto, each fragrance tells a unique story that resonates with its origin&lt;/font&gt;" style="text;html=1;strokeColor=none;fillColor=none;spacing=5;spacingTop=-20;whiteSpace=wrap;overflow=hidden;rounded=0;fontSize=12;fontColor=#B3B3B3;" parent="1" vertex="1">
                    <mxGeometry x="943" y="1030" width="222" height="160" as="geometry"/>
                </mxCell>
                <mxCell id="205" value="&lt;h1 style=&quot;font-size: 16px;&quot;&gt;&lt;/h1&gt;&lt;font style=&quot;&quot;&gt;&lt;font color=&quot;#ffffff&quot;&gt;&lt;b style=&quot;&quot;&gt;&lt;font style=&quot;font-size: 14px;&quot;&gt;High-Quality Ingredients&lt;/font&gt;&lt;/b&gt;&lt;b style=&quot;font-size: 14px;&quot;&gt;&lt;font style=&quot;font-size: 14px;&quot;&gt;&lt;br&gt;&lt;/font&gt;&lt;/b&gt;&lt;/font&gt;&lt;b style=&quot;font-size: 14px;&quot;&gt;&lt;font style=&quot;font-size: 14px;&quot;&gt;&lt;br&gt;&lt;/font&gt;&lt;/b&gt;&lt;/font&gt;&lt;span style=&quot;&quot;&gt;We believe that the key to an extraordinary scent lies in the quality of ingredients. That's why we collaborate with expert perfumers who source the finest and ethically-sourced materials from around the world. We never compromise on the quality of our products, ensuring a long-lasting and luxurious experience.&lt;/span&gt;" style="text;html=1;strokeColor=none;fillColor=none;spacing=5;spacingTop=-20;whiteSpace=wrap;overflow=hidden;rounded=0;fontSize=12;fontColor=#B3B3B3;" parent="1" vertex="1">
                    <mxGeometry x="1192" y="1030" width="222" height="180" as="geometry"/>
                </mxCell>
                <mxCell id="206" value="&lt;h1 style=&quot;font-size: 16px;&quot;&gt;&lt;/h1&gt;&lt;font style=&quot;font-size: 14px;&quot;&gt;&lt;b&gt;&lt;font color=&quot;#ffffff&quot;&gt;&lt;span style=&quot;&quot;&gt;Personalized Service&lt;/span&gt;&lt;font style=&quot;font-size: 14px;&quot;&gt;&lt;br&gt;&lt;/font&gt;&lt;/font&gt;&lt;/b&gt;&lt;b style=&quot;&quot;&gt;&lt;font style=&quot;font-size: 14px;&quot;&gt;&lt;br&gt;&lt;/font&gt;&lt;/b&gt;&lt;/font&gt;&lt;span style=&quot;&quot;&gt;We understand that choosing the perfect scent is a deeply personal experience. Our team of fragrance experts is always ready to assist you in finding a fragrance that complements your personality and style. Whether you're exploring new scents or seeking to rediscover an old favorite, we're here to guide you every step of the way.&lt;/span&gt;" style="text;html=1;strokeColor=none;fillColor=none;spacing=5;spacingTop=-20;whiteSpace=wrap;overflow=hidden;rounded=0;fontSize=12;fontColor=#B3B3B3;" parent="1" vertex="1">
                    <mxGeometry x="1441" y="1030" width="222" height="180" as="geometry"/>
                </mxCell>
                <mxCell id="268" value="" style="group" vertex="1" connectable="0" parent="1">
                    <mxGeometry x="3580" width="826" height="1461" as="geometry"/>
                </mxCell>
                <mxCell id="214" value="" style="rounded=0;whiteSpace=wrap;html=1;labelBackgroundColor=#999999;" vertex="1" parent="268">
                    <mxGeometry width="826" height="1120" as="geometry"/>
                </mxCell>
                <mxCell id="215" value="Home" style="text;html=1;align=center;verticalAlign=middle;resizable=0;points=[];autosize=1;strokeColor=none;fillColor=none;" vertex="1" parent="268">
                    <mxGeometry x="303" y="8" width="60" height="30" as="geometry"/>
                </mxCell>
                <mxCell id="216" value="About" style="text;html=1;align=center;verticalAlign=middle;resizable=0;points=[];autosize=1;strokeColor=none;fillColor=none;" vertex="1" parent="268">
                    <mxGeometry x="373" y="8" width="50" height="30" as="geometry"/>
                </mxCell>
                <mxCell id="217" value="Prodcts" style="text;html=1;align=center;verticalAlign=middle;resizable=0;points=[];autosize=1;strokeColor=none;fillColor=none;" vertex="1" parent="268">
                    <mxGeometry x="433" y="8" width="60" height="30" as="geometry"/>
                </mxCell>
                <mxCell id="218" value="Sign Up" style="rounded=1;whiteSpace=wrap;html=1;" vertex="1" parent="268">
                    <mxGeometry x="705" y="7" width="67" height="30" as="geometry"/>
                </mxCell>
                <mxCell id="219" value="" style="line;strokeWidth=1;strokeColor=light-dark(#000000,#666666);labelBackgroundColor=#999999;" vertex="1" parent="268">
                    <mxGeometry x="53" y="38" width="720" height="10" as="geometry"/>
                </mxCell>
                <mxCell id="220" value="Logo" style="text;html=1;align=left;verticalAlign=middle;resizable=0;points=[];autosize=1;strokeColor=none;fillColor=none;fontSize=17;" vertex="1" parent="268">
                    <mxGeometry x="53" y="11" width="60" height="30" as="geometry"/>
                </mxCell>
                <mxCell id="221" value="" style="swimlane;startSize=0;strokeColor=light-dark(#000000,#333333);" vertex="1" parent="268">
                    <mxGeometry x="53" y="1" width="720" height="1119" as="geometry"/>
                </mxCell>
                <mxCell id="331" value="&lt;font style=&quot;font-size: 13px;&quot;&gt;&amp;nbsp; Users&lt;/font&gt;" style="text;html=1;strokeColor=none;fillColor=none;align=left;verticalAlign=middle;whiteSpace=wrap;rounded=0;labelBackgroundColor=none;fontSize=18;fontColor=#FFFFFF;" vertex="1" parent="221">
                    <mxGeometry x="7" y="149" width="113" height="30" as="geometry"/>
                </mxCell>
                <mxCell id="328" value="" style="endArrow=none;html=1;fontSize=18;fontColor=#FFFFFF;strokeColor=#4D4D4D;" edge="1" parent="268">
                    <mxGeometry width="50" height="50" relative="1" as="geometry">
                        <mxPoint x="180" y="1100" as="sourcePoint"/>
                        <mxPoint x="179" y="60" as="targetPoint"/>
                    </mxGeometry>
                </mxCell>
                <mxCell id="329" value="&lt;font style=&quot;font-size: 13px;&quot;&gt;&amp;nbsp; Dashboard&lt;/font&gt;" style="text;html=1;strokeColor=default;fillColor=#878787;align=left;verticalAlign=middle;whiteSpace=wrap;rounded=1;labelBackgroundColor=none;fontSize=18;fontColor=#ffffff;gradientColor=none;" vertex="1" parent="268">
                    <mxGeometry x="60" y="70" width="110" height="30" as="geometry"/>
                </mxCell>
                <mxCell id="330" value="&lt;font style=&quot;font-size: 13px;&quot;&gt;&amp;nbsp; Products&lt;/font&gt;" style="text;html=1;strokeColor=none;fillColor=none;align=left;verticalAlign=middle;whiteSpace=wrap;rounded=0;labelBackgroundColor=none;fontSize=18;fontColor=#FFFFFF;" vertex="1" parent="268">
                    <mxGeometry x="60" y="110" width="110" height="30" as="geometry"/>
                </mxCell>
                <mxCell id="332" value="&lt;span style=&quot;font-size: 13px;&quot;&gt;&amp;nbsp; Orders&lt;/span&gt;" style="text;html=1;strokeColor=none;fillColor=none;align=left;verticalAlign=middle;whiteSpace=wrap;rounded=0;labelBackgroundColor=none;fontSize=18;fontColor=#FFFFFF;" vertex="1" parent="268">
                    <mxGeometry x="60" y="190" width="110" height="30" as="geometry"/>
                </mxCell>
                <mxCell id="333" value="&lt;span style=&quot;font-size: 13px;&quot;&gt;&amp;nbsp;&amp;nbsp;&lt;/span&gt;&lt;span style=&quot;font-size: 13px;&quot;&gt;Settings&lt;/span&gt;" style="text;html=1;strokeColor=none;fillColor=none;align=left;verticalAlign=middle;whiteSpace=wrap;rounded=0;labelBackgroundColor=none;fontSize=18;fontColor=#FFFFFF;" vertex="1" parent="268">
                    <mxGeometry x="60" y="230" width="110" height="30" as="geometry"/>
                </mxCell>
                <mxCell id="335" value="&lt;font style=&quot;font-size: 13px;&quot;&gt;&amp;nbsp; Log out&lt;/font&gt;" style="text;html=1;strokeColor=default;fillColor=#878787;align=left;verticalAlign=middle;whiteSpace=wrap;rounded=1;labelBackgroundColor=none;fontSize=18;fontColor=#ffffff;gradientColor=none;" vertex="1" parent="268">
                    <mxGeometry x="60" y="370" width="110" height="30" as="geometry"/>
                </mxCell>
                <mxCell id="269" value="" style="group" vertex="1" connectable="0" parent="1">
                    <mxGeometry x="2680" width="826" height="1471" as="geometry"/>
                </mxCell>
                <mxCell id="270" value="" style="rounded=0;whiteSpace=wrap;html=1;labelBackgroundColor=#999999;" vertex="1" parent="269">
                    <mxGeometry width="826" height="740" as="geometry"/>
                </mxCell>
                <mxCell id="271" value="Home" style="text;html=1;align=center;verticalAlign=middle;resizable=0;points=[];autosize=1;strokeColor=none;fillColor=none;" vertex="1" parent="269">
                    <mxGeometry x="303" y="8" width="60" height="30" as="geometry"/>
                </mxCell>
                <mxCell id="272" value="About" style="text;html=1;align=center;verticalAlign=middle;resizable=0;points=[];autosize=1;strokeColor=none;fillColor=none;" vertex="1" parent="269">
                    <mxGeometry x="373" y="8" width="50" height="30" as="geometry"/>
                </mxCell>
                <mxCell id="273" value="Prodcts" style="text;html=1;align=center;verticalAlign=middle;resizable=0;points=[];autosize=1;strokeColor=none;fillColor=none;" vertex="1" parent="269">
                    <mxGeometry x="433" y="8" width="60" height="30" as="geometry"/>
                </mxCell>
                <mxCell id="274" value="Sign Up" style="rounded=1;whiteSpace=wrap;html=1;" vertex="1" parent="269">
                    <mxGeometry x="705" y="7" width="67" height="30" as="geometry"/>
                </mxCell>
                <mxCell id="275" value="" style="line;strokeWidth=1;strokeColor=light-dark(#000000,#666666);labelBackgroundColor=#999999;" vertex="1" parent="269">
                    <mxGeometry x="53" y="38" width="720" height="10" as="geometry"/>
                </mxCell>
                <mxCell id="276" value="Logo" style="text;html=1;align=left;verticalAlign=middle;resizable=0;points=[];autosize=1;strokeColor=none;fillColor=none;fontSize=17;" vertex="1" parent="269">
                    <mxGeometry x="53" y="11" width="60" height="30" as="geometry"/>
                </mxCell>
                <mxCell id="285" value="" style="verticalLabelPosition=bottom;verticalAlign=top;strokeWidth=1;shape=mxgraph.mockup.graphics.iconGrid;strokeColor=#CCCCCC;gridSize=1,1;" vertex="1" parent="269">
                    <mxGeometry x="1" y="80" width="825" height="309" as="geometry"/>
                </mxCell>
                <mxCell id="286" value="&lt;p style=&quot;line-height: 140%;&quot;&gt;&lt;/p&gt;&lt;h1&gt;&lt;/h1&gt;&lt;span style=&quot;font-size: 24px;&quot;&gt;&lt;b&gt;Contact Us&lt;br&gt;&lt;/b&gt;&lt;/span&gt;&lt;font style=&quot;&quot; color=&quot;#cccccc&quot;&gt;At perfume store, we believe that perfumes are more than just scents; they are expressions of one's individuality and style. Our passion for exquisite fragrances led us to curate a collection that captures the essence of diverse personalities, bringing you an unparalleled olfactory experience.&lt;/font&gt;&lt;p style=&quot;line-height: 80%;&quot;&gt;&lt;/p&gt;" style="text;html=1;strokeColor=none;fillColor=none;spacing=5;spacingTop=-20;whiteSpace=wrap;overflow=hidden;rounded=0;align=center;" vertex="1" parent="269">
                    <mxGeometry x="163.5" y="174.5" width="500" height="120" as="geometry"/>
                </mxCell>
                <mxCell id="290" value="&lt;h3 style=&quot;text-align: left; border: 0px solid; color: rgb(255, 255, 255); font-family: ui-sans-serif, system-ui, sans-serif, &amp;quot;Apple Color Emoji&amp;quot;, &amp;quot;Segoe UI Emoji&amp;quot;, &amp;quot;Segoe UI Symbol&amp;quot;, &amp;quot;Noto Color Emoji&amp;quot;; box-sizing: border-box; margin: 0px 0px 4px; padding: 0px; font-size: inherit; --tw-font-weight: 700;&quot; class=&quot;font-bold mb-1&quot;&gt;Address&lt;/h3&gt;&lt;address style=&quot;text-align: left; border: 0px solid; font-family: ui-sans-serif, system-ui, sans-serif, &amp;quot;Apple Color Emoji&amp;quot;, &amp;quot;Segoe UI Emoji&amp;quot;, &amp;quot;Segoe UI Symbol&amp;quot;, &amp;quot;Noto Color Emoji&amp;quot;; box-sizing: border-box; margin: 0px; padding: 0px; font-size: 14px; line-height: 1.42857; color: oklab(0.999994 0.0000455678 0.0000200868 / 0.9);&quot; class=&quot;text-white/90 text-sm&quot;&gt;123 Main Street, City, State ZIP&lt;/address&gt;&lt;div style=&quot;box-sizing: border-box; margin: 0px; padding: 0px; border: 0px solid; --tw-space-y-reverse: 0; margin-block: 0px 16px; display: flex; align-items: center; justify-content: space-between; gap: 16px; color: rgb(255, 255, 255); font-family: ui-sans-serif, system-ui, sans-serif, &amp;quot;Apple Color Emoji&amp;quot;, &amp;quot;Segoe UI Emoji&amp;quot;, &amp;quot;Segoe UI Symbol&amp;quot;, &amp;quot;Noto Color Emoji&amp;quot;; font-size: medium; text-align: start; background-color: rgb(0, 0, 0);&quot; class=&quot;flex items-center justify-between gap-4&quot;&gt;&lt;div style=&quot;box-sizing: border-box; margin: 0px; padding: 0px; border: 0px solid; flex: 1 1 0%;&quot; class=&quot;flex-1&quot;&gt;&lt;/div&gt;&lt;/div&gt;&lt;p style=&quot;line-height: 140%;&quot;&gt;&lt;/p&gt;&lt;h1&gt;&lt;/h1&gt;&lt;p style=&quot;line-height: 80%;&quot;&gt;&lt;/p&gt;" style="text;html=1;strokeColor=none;fillColor=none;spacing=5;spacingTop=-20;whiteSpace=wrap;overflow=hidden;rounded=0;align=center;" vertex="1" parent="269">
                    <mxGeometry x="113" y="490" width="197" height="40" as="geometry"/>
                </mxCell>
                <mxCell id="292" value="&lt;h3 style=&quot;border: 0px solid; box-sizing: border-box; margin: 0px 0px 4px; padding: 0px; --tw-font-weight: 700;&quot; class=&quot;font-bold mb-1&quot;&gt;&lt;div style=&quot;text-align: left;&quot;&gt;&lt;span style=&quot;color: rgb(255, 255, 255); font-family: ui-sans-serif, system-ui, sans-serif, &amp;quot;Apple Color Emoji&amp;quot;, &amp;quot;Segoe UI Emoji&amp;quot;, &amp;quot;Segoe UI Symbol&amp;quot;, &amp;quot;Noto Color Emoji&amp;quot;; background-color: initial; font-size: 12px;&quot;&gt;Phone&lt;/span&gt;&lt;/div&gt;&lt;address style=&quot;text-align: left; border: 0px solid; box-sizing: border-box; margin: 0px; padding: 0px; line-height: 1.42857;&quot; class=&quot;text-white/90 text-sm&quot;&gt;&lt;font color=&quot;#ffffff&quot; face=&quot;ui-sans-serif, system-ui, sans-serif, Apple Color Emoji, Segoe UI Emoji, Segoe UI Symbol, Noto Color Emoji&quot;&gt;&lt;span style=&quot;font-size: 14px; font-weight: normal;&quot;&gt;+1 (123) 456-7890&lt;/span&gt;&lt;/font&gt;&lt;/address&gt;&lt;/h3&gt;&lt;address style=&quot;text-align: left; border: 0px solid; font-family: ui-sans-serif, system-ui, sans-serif, &amp;quot;Apple Color Emoji&amp;quot;, &amp;quot;Segoe UI Emoji&amp;quot;, &amp;quot;Segoe UI Symbol&amp;quot;, &amp;quot;Noto Color Emoji&amp;quot;; box-sizing: border-box; margin: 0px; padding: 0px; font-size: 14px; line-height: 1.42857; color: oklab(0.999994 0.0000455678 0.0000200868 / 0.9);&quot; class=&quot;text-white/90 text-sm&quot;&gt;&lt;/address&gt;&lt;div style=&quot;box-sizing: border-box; margin: 0px; padding: 0px; border: 0px solid; --tw-space-y-reverse: 0; margin-block: 0px 16px; display: flex; align-items: center; justify-content: space-between; gap: 16px; color: rgb(255, 255, 255); font-family: ui-sans-serif, system-ui, sans-serif, &amp;quot;Apple Color Emoji&amp;quot;, &amp;quot;Segoe UI Emoji&amp;quot;, &amp;quot;Segoe UI Symbol&amp;quot;, &amp;quot;Noto Color Emoji&amp;quot;; font-size: medium; text-align: start; background-color: rgb(0, 0, 0);&quot; class=&quot;flex items-center justify-between gap-4&quot;&gt;&lt;div style=&quot;box-sizing: border-box; margin: 0px; padding: 0px; border: 0px solid; flex: 1 1 0%;&quot; class=&quot;flex-1&quot;&gt;&lt;/div&gt;&lt;/div&gt;&lt;p style=&quot;line-height: 140%;&quot;&gt;&lt;/p&gt;&lt;h1&gt;&lt;/h1&gt;&lt;p style=&quot;line-height: 80%;&quot;&gt;&lt;/p&gt;" style="text;html=1;strokeColor=none;fillColor=none;spacing=5;spacingTop=-20;whiteSpace=wrap;overflow=hidden;rounded=0;align=center;" vertex="1" parent="269">
                    <mxGeometry x="113" y="540" width="127" height="40" as="geometry"/>
                </mxCell>
                <mxCell id="294" value="&lt;h3 style=&quot;border: 0px solid; box-sizing: border-box; margin: 0px 0px 4px; padding: 0px; --tw-font-weight: 700;&quot; class=&quot;font-bold mb-1&quot;&gt;&lt;div style=&quot;text-align: left;&quot;&gt;&lt;span style=&quot;color: rgb(255, 255, 255); font-family: ui-sans-serif, system-ui, sans-serif, &amp;quot;Apple Color Emoji&amp;quot;, &amp;quot;Segoe UI Emoji&amp;quot;, &amp;quot;Segoe UI Symbol&amp;quot;, &amp;quot;Noto Color Emoji&amp;quot;; background-color: initial; font-size: 12px;&quot;&gt;Email&lt;/span&gt;&lt;/div&gt;&lt;address style=&quot;text-align: left; border: 0px solid; box-sizing: border-box; margin: 0px; padding: 0px; line-height: 1.42857;&quot; class=&quot;text-white/90 text-sm&quot;&gt;&lt;font color=&quot;#ffffff&quot; face=&quot;ui-sans-serif, system-ui, sans-serif, Apple Color Emoji, Segoe UI Emoji, Segoe UI Symbol, Noto Color Emoji&quot;&gt;&lt;span style=&quot;font-size: 14px; font-weight: normal;&quot;&gt;contact@perfumestore.com&lt;/span&gt;&lt;/font&gt;&lt;/address&gt;&lt;/h3&gt;&lt;address style=&quot;text-align: left; border: 0px solid; font-family: ui-sans-serif, system-ui, sans-serif, &amp;quot;Apple Color Emoji&amp;quot;, &amp;quot;Segoe UI Emoji&amp;quot;, &amp;quot;Segoe UI Symbol&amp;quot;, &amp;quot;Noto Color Emoji&amp;quot;; box-sizing: border-box; margin: 0px; padding: 0px; font-size: 14px; line-height: 1.42857; color: oklab(0.999994 0.0000455678 0.0000200868 / 0.9);&quot; class=&quot;text-white/90 text-sm&quot;&gt;&lt;/address&gt;&lt;div style=&quot;box-sizing: border-box; margin: 0px; padding: 0px; border: 0px solid; --tw-space-y-reverse: 0; margin-block: 0px 16px; display: flex; align-items: center; justify-content: space-between; gap: 16px; color: rgb(255, 255, 255); font-family: ui-sans-serif, system-ui, sans-serif, &amp;quot;Apple Color Emoji&amp;quot;, &amp;quot;Segoe UI Emoji&amp;quot;, &amp;quot;Segoe UI Symbol&amp;quot;, &amp;quot;Noto Color Emoji&amp;quot;; font-size: medium; text-align: start; background-color: rgb(0, 0, 0);&quot; class=&quot;flex items-center justify-between gap-4&quot;&gt;&lt;div style=&quot;box-sizing: border-box; margin: 0px; padding: 0px; border: 0px solid; flex: 1 1 0%;&quot; class=&quot;flex-1&quot;&gt;&lt;/div&gt;&lt;/div&gt;&lt;p style=&quot;line-height: 140%;&quot;&gt;&lt;/p&gt;&lt;h1&gt;&lt;/h1&gt;&lt;p style=&quot;line-height: 80%;&quot;&gt;&lt;/p&gt;" style="text;html=1;strokeColor=none;fillColor=none;spacing=5;spacingTop=-20;whiteSpace=wrap;overflow=hidden;rounded=0;align=center;" vertex="1" parent="269">
                    <mxGeometry x="113" y="590" width="177" height="40" as="geometry"/>
                </mxCell>
                <mxCell id="295" value="" style="ellipse;whiteSpace=wrap;html=1;aspect=fixed;labelBackgroundColor=none;fontSize=18;fontColor=#FFFFFF;" vertex="1" parent="269">
                    <mxGeometry x="63" y="480" width="40" height="40" as="geometry"/>
                </mxCell>
                <mxCell id="296" value="" style="ellipse;whiteSpace=wrap;html=1;aspect=fixed;labelBackgroundColor=none;fontSize=18;fontColor=#FFFFFF;" vertex="1" parent="269">
                    <mxGeometry x="63" y="530" width="40" height="40" as="geometry"/>
                </mxCell>
                <mxCell id="297" value="" style="ellipse;whiteSpace=wrap;html=1;aspect=fixed;labelBackgroundColor=none;fontSize=18;fontColor=#FFFFFF;" vertex="1" parent="269">
                    <mxGeometry x="61.5" y="580" width="43" height="43" as="geometry"/>
                </mxCell>
                <mxCell id="307" value="" style="swimlane;startSize=0;strokeColor=light-dark(#000000,#333333);" vertex="1" parent="269">
                    <mxGeometry x="52" y="1" width="720" height="739" as="geometry"/>
                </mxCell>
                <mxCell id="308" value="" style="rounded=1;whiteSpace=wrap;html=1;labelBackgroundColor=none;fontSize=18;fontColor=#FFFFFF;" vertex="1" parent="307">
                    <mxGeometry x="368" y="442" width="330" height="26" as="geometry"/>
                </mxCell>
                <mxCell id="310" value="&lt;p style=&quot;line-height: 120%;&quot;&gt;&lt;font style=&quot;font-size: 12px;&quot;&gt;Name&lt;/font&gt;&lt;/p&gt;" style="text;html=1;strokeColor=none;fillColor=none;align=center;verticalAlign=middle;whiteSpace=wrap;rounded=0;labelBackgroundColor=none;fontSize=18;fontColor=#FFFFFF;" vertex="1" parent="269">
                    <mxGeometry x="420" y="418" width="30" height="20" as="geometry"/>
                </mxCell>
                <mxCell id="311" value="" style="rounded=1;whiteSpace=wrap;html=1;labelBackgroundColor=none;fontSize=18;fontColor=#FFFFFF;" vertex="1" parent="269">
                    <mxGeometry x="420" y="500" width="330" height="26" as="geometry"/>
                </mxCell>
                <mxCell id="312" value="&lt;p style=&quot;line-height: 120%;&quot;&gt;&lt;font style=&quot;font-size: 12px;&quot;&gt;Email&lt;/font&gt;&lt;/p&gt;" style="text;html=1;strokeColor=none;fillColor=none;align=center;verticalAlign=middle;whiteSpace=wrap;rounded=0;labelBackgroundColor=none;fontSize=18;fontColor=#FFFFFF;" vertex="1" parent="269">
                    <mxGeometry x="420" y="476" width="30" height="20" as="geometry"/>
                </mxCell>
                <mxCell id="313" value="" style="rounded=1;whiteSpace=wrap;html=1;labelBackgroundColor=none;fontSize=18;fontColor=#FFFFFF;rotation=0;gradientColor=none;" vertex="1" parent="269">
                    <mxGeometry x="420" y="558" width="330" height="90" as="geometry"/>
                </mxCell>
                <mxCell id="314" value="&lt;p style=&quot;line-height: 120%;&quot;&gt;&lt;font style=&quot;font-size: 12px;&quot;&gt;Message&lt;/font&gt;&lt;/p&gt;" style="text;html=1;strokeColor=none;fillColor=none;align=center;verticalAlign=middle;whiteSpace=wrap;rounded=0;labelBackgroundColor=none;fontSize=18;fontColor=#FFFFFF;" vertex="1" parent="269">
                    <mxGeometry x="420" y="535" width="50" height="20" as="geometry"/>
                </mxCell>
                <mxCell id="315" value="&lt;b&gt;&lt;font style=&quot;font-size: 18px;&quot;&gt;Contact Information&lt;/font&gt;&lt;/b&gt;" style="text;html=1;strokeColor=none;fillColor=none;align=center;verticalAlign=middle;whiteSpace=wrap;rounded=0;labelBackgroundColor=none;fontSize=12;fontColor=#FFFFFF;" vertex="1" parent="269">
                    <mxGeometry x="52" y="430" width="180" height="30" as="geometry"/>
                </mxCell>
                <mxCell id="316" value="Send" style="rounded=1;whiteSpace=wrap;html=1;" vertex="1" parent="269">
                    <mxGeometry x="683" y="670" width="67" height="30" as="geometry"/>
                </mxCell>
                <mxCell id="279" value="&lt;font color=&quot;#000000&quot;&gt;&lt;b&gt;&lt;i&gt;&lt;u&gt;Contact Page&lt;/u&gt;&lt;/i&gt;&lt;/b&gt;&lt;/font&gt;" style="text;html=1;align=center;verticalAlign=middle;resizable=0;points=[];autosize=1;strokeColor=none;fillColor=none;fontColor=#B3B3B3;labelBackgroundColor=#B3B3B3;labelBorderColor=default;spacingTop=0;spacing=5;" vertex="1" parent="1">
                    <mxGeometry x="2670" y="-45" width="110" height="30" as="geometry"/>
                </mxCell>
                <mxCell id="280" value="&lt;font color=&quot;#000000&quot;&gt;&lt;b&gt;&lt;i&gt;&lt;u&gt;Dashboard Page&lt;/u&gt;&lt;/i&gt;&lt;/b&gt;&lt;/font&gt;" style="text;html=1;align=center;verticalAlign=middle;resizable=0;points=[];autosize=1;strokeColor=none;fillColor=none;fontColor=#B3B3B3;labelBackgroundColor=#B3B3B3;labelBorderColor=default;spacingTop=0;spacing=5;" vertex="1" parent="1">
                    <mxGeometry x="3570" y="-44" width="120" height="30" as="geometry"/>
                </mxCell>
                <mxCell id="283" value="Home &amp;gt; Contact" style="text;html=1;strokeColor=none;fillColor=none;align=center;verticalAlign=middle;whiteSpace=wrap;rounded=0;" vertex="1" parent="1">
                    <mxGeometry x="2733" y="46" width="123" height="30" as="geometry"/>
                </mxCell>
                <mxCell id="317" value="" style="group" vertex="1" connectable="0" parent="1">
                    <mxGeometry x="4470" width="826" height="1461" as="geometry"/>
                </mxCell>
                <mxCell id="318" value="" style="rounded=0;whiteSpace=wrap;html=1;labelBackgroundColor=#999999;" vertex="1" parent="317">
                    <mxGeometry width="826" height="1460" as="geometry"/>
                </mxCell>
                <mxCell id="319" value="Home" style="text;html=1;align=center;verticalAlign=middle;resizable=0;points=[];autosize=1;strokeColor=none;fillColor=none;" vertex="1" parent="317">
                    <mxGeometry x="303" y="8" width="60" height="30" as="geometry"/>
                </mxCell>
                <mxCell id="320" value="About" style="text;html=1;align=center;verticalAlign=middle;resizable=0;points=[];autosize=1;strokeColor=none;fillColor=none;" vertex="1" parent="317">
                    <mxGeometry x="373" y="8" width="50" height="30" as="geometry"/>
                </mxCell>
                <mxCell id="321" value="Prodcts" style="text;html=1;align=center;verticalAlign=middle;resizable=0;points=[];autosize=1;strokeColor=none;fillColor=none;" vertex="1" parent="317">
                    <mxGeometry x="433" y="8" width="60" height="30" as="geometry"/>
                </mxCell>
                <mxCell id="322" value="Sign Up" style="rounded=1;whiteSpace=wrap;html=1;" vertex="1" parent="317">
                    <mxGeometry x="705" y="7" width="67" height="30" as="geometry"/>
                </mxCell>
                <mxCell id="323" value="" style="line;strokeWidth=1;strokeColor=light-dark(#000000,#666666);labelBackgroundColor=#999999;" vertex="1" parent="317">
                    <mxGeometry x="53" y="38" width="720" height="10" as="geometry"/>
                </mxCell>
                <mxCell id="324" value="Logo" style="text;html=1;align=left;verticalAlign=middle;resizable=0;points=[];autosize=1;strokeColor=none;fillColor=none;fontSize=17;" vertex="1" parent="317">
                    <mxGeometry x="53" y="11" width="60" height="30" as="geometry"/>
                </mxCell>
                <mxCell id="325" value="" style="swimlane;startSize=0;strokeColor=light-dark(#000000,#333333);" vertex="1" parent="317">
                    <mxGeometry x="53" y="1" width="720" height="1460" as="geometry"/>
                </mxCell>
                <mxCell id="326" value="&lt;font color=&quot;#000000&quot;&gt;&lt;b&gt;&lt;i&gt;&lt;u&gt;Dashboard Page&lt;/u&gt;&lt;/i&gt;&lt;/b&gt;&lt;/font&gt;" style="text;html=1;align=center;verticalAlign=middle;resizable=0;points=[];autosize=1;strokeColor=none;fillColor=none;fontColor=#B3B3B3;labelBackgroundColor=#B3B3B3;labelBorderColor=default;spacingTop=0;spacing=5;" vertex="1" parent="1">
                    <mxGeometry x="4460" y="-45" width="120" height="30" as="geometry"/>
                </mxCell>
            </root>
        </mxGraphModel>
    </diagram>
</mxfile>